<?xml version="1.0" standalone="no"?>
<svg xmlns:xlink="http://www.w3.org/1999/xlink" id="wave" style="transform:rotate(180deg); transition: 0.3s" viewBox="0 0 1440 250" version="1.1" xmlns="http://www.w3.org/2000/svg"><defs><linearGradient id="sw-gradient-0" x1="0" x2="0" y1="1" y2="0"><stop stop-color="rgba(29.884, 27.417, 80.058, 1)" offset="0%"/><stop stop-color="rgba(84.659, 67.364, 100.549, 1)" offset="100%"/></linearGradient></defs><path style="transform:translate(0, 0px); opacity:1" fill="url(#sw-gradient-0)" d="M0,150L26.7,145.8C53.3,142,107,133,160,141.7C213.3,150,267,175,320,179.2C373.3,183,427,167,480,141.7C533.3,117,587,83,640,87.5C693.3,92,747,133,800,145.8C853.3,158,907,142,960,116.7C1013.3,92,1067,58,1120,37.5C1173.3,17,1227,8,1280,12.5C1333.3,17,1387,33,1440,70.8C1493.3,108,1547,167,1600,187.5C1653.3,208,1707,192,1760,158.3C1813.3,125,1867,75,1920,58.3C1973.3,42,2027,58,2080,75C2133.3,92,2187,108,2240,112.5C2293.3,117,2347,108,2400,108.3C2453.3,108,2507,117,2560,120.8C2613.3,125,2667,125,2720,125C2773.3,125,2827,125,2880,141.7C2933.3,158,2987,192,3040,208.3C3093.3,225,3147,225,3200,191.7C3253.3,158,3307,92,3360,62.5C3413.3,33,3467,42,3520,66.7C3573.3,92,3627,133,3680,162.5C3733.3,192,3787,208,3813,216.7L3840,225L3840,250L3813.3,250C3786.7,250,3733,250,3680,250C3626.7,250,3573,250,3520,250C3466.7,250,3413,250,3360,250C3306.7,250,3253,250,3200,250C3146.7,250,3093,250,3040,250C2986.7,250,2933,250,2880,250C2826.7,250,2773,250,2720,250C2666.7,250,2613,250,2560,250C2506.7,250,2453,250,2400,250C2346.7,250,2293,250,2240,250C2186.7,250,2133,250,2080,250C2026.7,250,1973,250,1920,250C1866.7,250,1813,250,1760,250C1706.7,250,1653,250,1600,250C1546.7,250,1493,250,1440,250C1386.7,250,1333,250,1280,250C1226.7,250,1173,250,1120,250C1066.7,250,1013,250,960,250C906.7,250,853,250,800,250C746.7,250,693,250,640,250C586.7,250,533,250,480,250C426.7,250,373,250,320,250C266.7,250,213,250,160,250C106.7,250,53,250,27,250L0,250Z"/></svg>