<?xml version="1.0" standalone="no"?>
<svg xmlns:xlink="http://www.w3.org/1999/xlink" id="wave" style="transform:rotate(180deg); transition: 0.3s" viewBox="0 0 1440 280" version="1.1" xmlns="http://www.w3.org/2000/svg"><defs><linearGradient id="sw-gradient-0" x1="0" x2="0" y1="1" y2="0"><stop stop-color="rgba(42.382, 15.546, 84.561, 1)" offset="0%"/><stop stop-color="rgba(49.168, 78.206, 139.204, 1)" offset="100%"/></linearGradient></defs><path style="transform:translate(0, 0px); opacity:1" fill="url(#sw-gradient-0)" d="M0,28L34.3,28C68.6,28,137,28,206,46.7C274.3,65,343,103,411,102.7C480,103,549,65,617,65.3C685.7,65,754,103,823,140C891.4,177,960,215,1029,191.3C1097.1,168,1166,84,1234,51.3C1302.9,19,1371,37,1440,51.3C1508.6,65,1577,75,1646,84C1714.3,93,1783,103,1851,130.7C1920,159,1989,205,2057,224C2125.7,243,2194,233,2263,210C2331.4,187,2400,149,2469,140C2537.1,131,2606,149,2674,140C2742.9,131,2811,93,2880,93.3C2948.6,93,3017,131,3086,135.3C3154.3,140,3223,112,3291,88.7C3360,65,3429,47,3497,70C3565.7,93,3634,159,3703,158.7C3771.4,159,3840,93,3909,79.3C3977.1,65,4046,103,4114,116.7C4182.9,131,4251,121,4320,112C4388.6,103,4457,93,4526,116.7C4594.3,140,4663,196,4731,205.3C4800,215,4869,177,4903,158.7L4937.1,140L4937.1,280L4902.9,280C4868.6,280,4800,280,4731,280C4662.9,280,4594,280,4526,280C4457.1,280,4389,280,4320,280C4251.4,280,4183,280,4114,280C4045.7,280,3977,280,3909,280C3840,280,3771,280,3703,280C3634.3,280,3566,280,3497,280C3428.6,280,3360,280,3291,280C3222.9,280,3154,280,3086,280C3017.1,280,2949,280,2880,280C2811.4,280,2743,280,2674,280C2605.7,280,2537,280,2469,280C2400,280,2331,280,2263,280C2194.3,280,2126,280,2057,280C1988.6,280,1920,280,1851,280C1782.9,280,1714,280,1646,280C1577.1,280,1509,280,1440,280C1371.4,280,1303,280,1234,280C1165.7,280,1097,280,1029,280C960,280,891,280,823,280C754.3,280,686,280,617,280C548.6,280,480,280,411,280C342.9,280,274,280,206,280C137.1,280,69,280,34,280L0,280Z"/></svg>